<?xml version="1.0" encoding="UTF-8" standalone="no"?><!DOCTYPE svg PUBLIC "-//W3C//DTD SVG 1.1//EN" "http://www.w3.org/Graphics/SVG/1.1/DTD/svg11.dtd"><svg width="100%" height="100%" viewBox="0 0 315 81" version="1.1" xmlns="http://www.w3.org/2000/svg" xmlns:xlink="http://www.w3.org/1999/xlink" xml:space="preserve" xmlns:serif="http://www.serif.com/" style="fill-rule:evenodd;clip-rule:evenodd;stroke-linejoin:round;stroke-miterlimit:2;"><g><path d="M97.973,59.551l19.875,0l-0,20.758l4.011,0l0,-20.758l19.946,0l-0,-3.867l-43.832,0l-0,3.867Z" style="fill:#101820;fill-rule:nonzero;"/><path d="M151.949,80.309l43.903,0l0,-3.871l-43.903,0l0,3.871Zm43.903,-20.829l0,-3.832l-43.903,-0.035l0,3.867l43.903,-0Zm-43.903,6.579l0,3.8l41.789,0l0,-3.8l-41.789,0Z" style="fill:#101820;fill-rule:nonzero;"/><path d="M206.344,67.961c-0,6.894 5.98,12.312 12.945,12.312l30.992,0l0,-3.835l-30.992,0c-5.062,0 -8.898,-4.083 -8.898,-8.477c0.035,-0.527 0.07,-0.918 0.175,-1.305l0.106,-0.492c0.879,-3.832 4.539,-6.613 8.371,-6.613l31.203,0l0,-3.867l-30.992,0c-6.859,0 -12.91,5.378 -12.91,12.277Z" style="fill:#101820;fill-rule:nonzero;"/><path d="M260.426,55.684l-0,24.625l3.976,0l0,-10.379l35.844,0l0,10.379l4.012,0l-0,-24.625l-4.012,0l0,10.41l-35.844,-0l0,-10.41l-3.976,0Z" style="fill:#101820;fill-rule:nonzero;"/><path d="M97.973,0.609l24.179,0c2.957,0 5.528,0.313 7.719,0.942c2.191,0.625 4.012,1.488 5.461,2.59c1.445,1.101 2.523,2.41 3.227,3.925c0.707,1.516 1.058,3.153 1.058,4.907c0,2.879 -0.906,5.398 -2.722,7.558c2.085,1.239 3.64,2.84 4.664,4.809c1.023,1.969 1.535,4.211 1.535,6.719c-0,2.105 -0.356,4.007 -1.059,5.707c-0.703,1.699 -1.777,3.148 -3.215,4.355c-1.437,1.207 -3.254,2.137 -5.445,2.781c-2.191,0.649 -4.773,0.969 -7.746,0.969l-27.656,-0l-0,-45.262Zm27.715,17.375c0.792,0 1.562,0.028 2.316,0.086c1.293,-1.234 1.941,-2.644 1.941,-4.226c0,-1.641 -0.645,-2.91 -1.925,-3.809c-1.286,-0.898 -3.165,-1.347 -5.633,-1.347l-15.235,0l0,9.296l18.536,0Zm0.171,19.895c2.473,0 4.352,-0.531 5.633,-1.59c1.285,-1.062 1.926,-2.559 1.926,-4.492c-0,-1.93 -0.641,-3.434 -1.926,-4.516c-1.281,-1.082 -3.16,-1.621 -5.633,-1.621l-18.707,-0l0,12.219l18.707,0Z" style="fill:#101820;fill-rule:nonzero;"/><path d="M152.418,0.609l9.18,0l16.449,16.508l16.449,-16.508l9.18,0l-0,45.262l-9.18,-0l0,-32.551l-16.449,15.844l-16.449,-15.844l0,32.551l-9.18,-0l-0,-45.262Z" style="fill:#101820;fill-rule:nonzero;"/><path d="M230.203,8.66l-16.707,0l0,-8.051l42.598,0l-0,8.051l-16.707,0l-0,37.211l-9.184,-0l0,-37.211Z" style="fill:#101820;fill-rule:nonzero;"/><path d="M263.219,23.109c-0,-3.418 0.629,-6.543 1.883,-9.382c1.253,-2.836 3.015,-5.274 5.285,-7.313c2.269,-2.035 4.992,-3.613 8.168,-4.734c3.175,-1.121 6.695,-1.68 10.554,-1.68c3.844,-0 7.356,0.559 10.543,1.68c3.184,1.121 5.91,2.699 8.18,4.734c2.27,2.039 4.031,4.477 5.285,7.313c1.254,2.839 1.883,5.964 1.883,9.382c0,3.438 -0.629,6.59 -1.883,9.457c-1.254,2.868 -3.015,5.332 -5.285,7.399c-2.27,2.066 -4.996,3.672 -8.18,4.82c-3.187,1.153 -6.699,1.727 -10.543,1.727c-3.859,0 -7.379,-0.574 -10.554,-1.727c-3.176,-1.148 -5.899,-2.754 -8.168,-4.82c-2.27,-2.067 -4.032,-4.531 -5.285,-7.399c-1.254,-2.867 -1.883,-6.019 -1.883,-9.457Zm9.179,0c0,2.336 0.422,4.442 1.262,6.313c0.84,1.875 2.008,3.473 3.504,4.793c1.496,1.324 3.262,2.344 5.301,3.058c2.035,0.711 4.25,1.071 6.644,1.071c2.395,0 4.61,-0.36 6.649,-1.071c2.035,-0.714 3.797,-1.734 5.285,-3.058c1.484,-1.32 2.652,-2.918 3.504,-4.793c0.848,-1.871 1.273,-3.977 1.273,-6.313c0,-2.336 -0.425,-4.429 -1.273,-6.285c-0.852,-1.851 -2.02,-3.422 -3.504,-4.703c-1.488,-1.285 -3.25,-2.266 -5.285,-2.941c-2.039,-0.676 -4.254,-1.012 -6.649,-1.012c-2.394,-0 -4.609,0.336 -6.644,1.012c-2.039,0.675 -3.805,1.656 -5.301,2.941c-1.496,1.281 -2.664,2.852 -3.504,4.703c-0.84,1.856 -1.262,3.949 -1.262,6.285Z" style="fill:#101820;fill-rule:nonzero;"/><path d="M74.41,49.289l-3.496,8.559l-5.426,-0.25c-2.07,-0.098 -4.09,0.687 -5.547,2.16c0,-0 -0.003,-0 -0.003,0.004c-1.461,1.468 -2.227,3.496 -2.114,5.567l0.301,5.421l-8.719,3.66l-0.019,-0l-3.676,-4.031c-1.387,-1.524 -3.352,-2.387 -5.406,-2.371l-0.004,0c-2.09,0.012 -4.082,0.906 -5.473,2.469l-3.523,3.933l-0.293,-0l-8.555,-3.5l0.258,-5.426c0.094,-2.07 -0.692,-4.082 -2.16,-5.543l-0.004,-0c-1.473,-1.461 -3.5,-2.23 -5.574,-2.117l-5.418,0.301l-3.661,-8.719l-0,-0.023l4.008,-3.649c1.535,-1.398 2.406,-3.379 2.399,-5.457l0,-0.004c-0.012,-2.07 -0.903,-4.043 -2.446,-5.425l-3.961,-3.543l-0,-0.289l3.497,-8.555l5.425,0.25c2.075,0.098 4.09,-0.688 5.547,-2.156l0,-0.004c1.461,-1.473 2.231,-3.5 2.117,-5.574l-0.3,-5.418l8.726,-3.661l0.012,0l3.652,4.008c1.399,1.535 3.383,2.406 5.453,2.395l0.004,0c2.074,-0.008 4.047,-0.899 5.43,-2.442l3.543,-3.961l0.285,0l8.559,3.497l-0.254,5.425c-0.094,2.075 0.691,4.09 2.16,5.547l0.004,0c1.472,1.465 3.5,2.231 5.574,2.117l5.418,-0.3l3.66,8.722l0,0.016l-4.008,3.648c-1.535,1.403 -2.406,3.383 -2.398,5.461c0.012,2.074 0.902,4.047 2.445,5.426l3.961,3.547l0,0.285Zm-46.195,-14.016c-2.695,6.59 0.465,14.122 7.058,16.821c6.59,2.691 14.122,-0.465 16.817,-7.059c2.695,-6.594 -0.461,-14.125 -7.055,-16.816c-6.594,-2.699 -14.125,0.461 -16.82,7.054Zm-28.215,36.868l-0,-63.973c-0,-2.258 0.797,-4.18 2.391,-5.777c1.597,-1.594 3.519,-2.391 5.777,-2.391l63.973,0c2.254,0 4.179,0.797 5.773,2.391c1.594,1.597 2.395,3.519 2.395,5.777l-0,63.973c-0,2.254 -0.801,4.179 -2.395,5.773c-1.594,1.594 -3.519,2.395 -5.773,2.395l-63.973,0c-2.258,0 -4.18,-0.801 -5.777,-2.395c-1.594,-1.594 -2.391,-3.519 -2.391,-5.773Zm76.453,4.312c1.192,-1.191 1.789,-2.629 1.789,-4.312l-0,-63.973c-0,-1.688 -0.597,-3.125 -1.789,-4.316c-1.191,-1.192 -2.629,-1.786 -4.312,-1.786l-63.973,0c-1.688,0 -3.125,0.594 -4.316,1.786c-1.192,1.191 -1.786,2.628 -1.786,4.316l-0,63.973c-0,1.683 0.594,3.121 1.786,4.312c1.191,1.192 2.628,1.789 4.316,1.789l63.973,0c1.683,0 3.121,-0.597 4.312,-1.789Z" style="fill:#101820;"/></g></svg>